<svg xmlns="http://www.w3.org/2000/svg" xmlns:xlink="http://www.w3.org/1999/xlink" preserveAspectRatio="xMidYMid meet" version="1.0" viewBox="171.6 299.0 10795.4 8272.2" zoomAndPan="magnify" style="fill: rgb(128, 141, 166);" original_string_length="6613" width="92.25321997956006px" height="70.69186064575459px"><g id="__id0_sr7tgc224c"><path d="M9895.6,8493.6c-83.1-10.7-166.8-18.1-249.2-32.6c-666.7-116.9-1259.4-404.5-1812.2-785.2 c-263.6-181.5-528.5-361.4-796-537.1c-300.1-197.1-628.3-334.8-967-451.3c-388.9-133.8-766.8-294-1122.1-503.6 c-183-107.9-355.6-230.4-516.9-369c-305.1-262-536.7-579.7-715.1-938.2c-11.6-23.2-23.9-46.2-33.7-70.2 c-76.2-186.1-218.6-303.1-399.5-376.3c-71.7-29-148.4-45.7-223-67.3c-64.3-18.7-131.1-30.9-192.7-55.9 c-93.2-37.9-182.7-84.6-254.6-158.3c-5.8-5.9-13.5-9.9-30.5-22c8.5,31.8,14.2,53.3,19.7,74.1c-22.2-1.3-44.5-2.6-73.1-4.3 c-33.8-42.2-43.8-98.1-33.8-159.1c-144.3-108.1-246.9-249.8-349.9-391.8c-117.4-161.9-179-345.1-205.7-540 c-14.3-104.5-16-211.2-16.5-316.9c-0.5-109.7-17.5-214-58.8-316.4c-29.8-73.8-52.4-151.2-70.3-228.9 c-41.4-179.4-147.5-304.2-308.9-386.5c-113.4-57.9-236.4-83.5-360.3-102.3c-311.2-47.2-616.4-9.5-917.8,72.7 c-9.9,2.7-20.4,2.6-36.1-5.4c15.8-13.1,30.6-27.4,47.4-39.1c84.2-58.6,181.4-81.1,280.6-92.2c212.2-23.6,423.1-13.1,632.3,32.5 c124.8,27.2,250.8,46.3,379.3,45.8c57.4-0.2,110.3-13.1,162.6-36.8c137.2-62.1,279.6-102.7,432.7-96.2 c310,13.2,468.7,238,480.5,459c2.2,41,6.3,81.9,10.4,122.8c5.8,59,22.7,114.9,55.9,164.1c28.9,42.8,61.8,82.9,98.2,131.2 c68.1-43.4,133.5-83.8,197.5-126.4c23.8-15.8,28-36.7,16.8-67.3c-23.1-63.4-12.6-86.4,41.4-127c25.9-19.4,52.4-38.2,76.7-59.4 c25.9-22.6,38.8-51.3,28.1-89.3c-63.7-28.5-105.6,33.6-165.3,40.8c2.4-41.8,24.5-73.4,46.5-104.7 c91.5-129.9,210.2-226.7,349.5-303.2c130.5-71.6,256.1-152.3,382-232c31.4-19.9,55.4-51.3,79.4-83.1 c-46.3-10.1-86.5,3.5-125.2,18.7c-149.4,58.6-290.7,133.1-424.4,222c-149.8,99.6-291.5,209.4-425.5,329.3 c-4.6,4.1-10.9,6.4-22.1,12.8c3.5-16.7,4.4-29,8.8-39.9c30.7-77.2,74.7-146.4,129.5-208.4c238.3-269.3,510-498.6,818.2-684.5 c25.9-15.6,52-31.3,76.2-49.3c27.7-20.6,50.9-45.5,54.6-90.6c-66.7,18.5-107.4,67.9-158.2,100.3c-52.9,33.7-106.6,66.2-157.9,102.2 c-50.8,35.6-99.1,74.9-153.5,116.5c3.5-16.1,4.4-29.7,9.4-41.7c42.8-102.9,99.7-196.9,182.4-273c112.9-103.9,216-218.7,344.1-305.6 c72.1-48.9,147.6-90.6,231.2-115.4c87.9-26,169.7-63.8,246.2-114c24.2-15.9,51-27.9,76.7-41.7c3.4,4.3,6.7,8.6,10.1,12.8 c-21.7,21.6-40.8,47.2-65.7,64.1c-67.9,46-138.1,88.9-207.9,132c-51.5,31.8-104.9,60.5-155.7,93.3c-54.3,35.1-77.1,83.8-62.2,150.2 c16.8,75.3-2.6,145.9-39.4,212.1c-41.6,74.7-99,136.2-162.1,192.9c-54.3,48.8-108.4,97.7-160.7,152.2 c103.1-10.4,200.8-52.9,313.2-49.2c-19.7,42.1-50.7,61.4-79.8,82.1c-160.3,114.2-322.1,226.4-480.6,343 c-71.2,52.4-137.4,111.9-203.4,171.1c-41,36.8-42.2,45.7-48.6,95.7c6.3,3.7,13.1,8.5,20.6,11.9c48.1,21.8,64.6,44.9,52.5,95.2 c-10.5,43.5-26.5,87.2-48.6,126.1c-83,146.3-201.7,258.2-346,343.5c-14.6,8.6-29,17.4-49.1,29.4c39,49.2,75.8,95.5,114.1,143.8 c77.7-28.2,141.4-76.8,205.9-122.8c85.7-61.1,178.1-108.6,279.7-132.6c132.3-31.3,265.5-63.2,400.1-79.9 c291.8-36.1,585-59.9,877-93.9c212.5-24.7,424.1-57.5,636-87.1c308.7-43.1,612.3-111,911.9-196.1c287.6-81.7,567.4-184,824.9-339.4 c3.3-2,8-1.5,16.9-3c0,11.9,2.1,23.5-0.3,34.1c-12.9,57.3-44.1,105.5-91.1,137.9c-74.5,51.3-150.6,101.7-231.1,142.6 c-197.2,100.3-409.7,160.9-618.1,232.9c-215.5,74.5-439.2,90.7-662.5,115.8c-161,18.1-321.3,42.8-481.5,67.8 c-39.9,6.2-78.2,23.9-116.5,38.2c-24.5,9.1-42.4,29.2-34.7,54.9c5.4,17.9,21.8,38.3,38.6,46c68,31.3,140.2,22.5,210.5,9.8 c95.6-17.3,189.7-43.7,285.7-58.3c156-23.8,312.6-43.5,469.5-60.8c286-31.5,572.8-53.6,860.7-58.1c32-0.5,64-0.1,95.9-0.1 c0.6,5.6,1.1,11.3,1.7,16.9c-294,53-587.8,107.5-882.2,158.5c-293.9,50.9-587.7,103.5-882.9,145.8 c-296.8,42.6-595.3,73.4-894.3,119.3c16.9,2.4,33.8,7,50.7,6.8c224.9-2.9,450.1,0.2,674.6-11.6c334.8-17.6,668.9-45.8,1003.4-69.7 c62.4-4.5,124.7-9.6,195.3-15.1c-77.2,57.2-812.8,167.9-1162.1,184.6c-392,18.7-783.8,19.6-1175.8-0.3 c74.7,42.8,178.2,61.9,774.6,136.1c261,32.5,522.9,58.2,784.9,96.7c-50.2,3.6-100.5,11.1-150.6,10c-118.9-2.7-237.8-7.9-356.5-14.9 c-310.9-18.2-621.7-39-932.7-56.1c-70-3.8-140.7,3.2-220.1,5.5c22.2,43.2,53.5,54.8,82.8,63.9c107.1,33.5,214.5,66.6,323,95.4 c148.3,39.4,297.7,74.5,446.5,111.9c19.7,4.9,38.8,12.4,56.9,24c-55.9,15.9-111,11-164.6-1c-166.7-37.1-332.7-76.9-499.2-114.9 c-115.8-26.4-231.9-51.6-348-77c-9.9-2.2-20.3-2.4-34.5,8.4c51.9,21.5,103.8,43.1,155.6,64.6c-118.1-12.6-230.8-62.4-353.8-34.9 c117.3,62.1,245.3,98.2,362.4,161.9c-69.3-20.2-138.8-39.8-207.8-60.8c-80.6-24.6-160.7-50.9-241.3-75.6 c-20.9-6.4-42.9-9.4-66.8-3.3c104,63.5,208,127,312,190.4c-2,4.3-4,8.7-6,13c-51.6-20.7-103.2-41.3-162.9-65.2 c37.3,68.3,73.2,124.6,99.8,185.1c43.5,98.9,81.6,200.2,120.7,300.9c169.6,436.4,362.6,861.3,626.4,1250.2 c75.2,110.8,155.2,219.7,244.6,319.1c73.1,81.4,159.3,152.7,246.9,219c248.3,188,519.9,334.4,816.4,431.3 c355.3,116.2,708.4,239.9,1072.5,326.9c147,35.1,296.1,61.9,444.6,90.4c234.7,45.1,458.6,124.9,680.4,210.7 c274,106.1,545.4,219.2,819.9,323.9c319.7,121.9,647.5,218.1,985.3,274.5c153.3,25.6,308.8,37.9,463.3,56.3c0,17.3,0,34.6,0,51.9 c-130.9-15.1-262.6-25.1-392.5-46.2c-365.7-59.5-722.9-155.6-1072.4-277.1c-344.8-119.9-685.5-251.5-1028.1-377.8 c-188.6-69.5-377.5-138.8-575.8-176c-108.3-20.3-218.2-31.9-326.4-53c-391.8-76.5-769.1-202.5-1137.8-352.4 c-220-89.4-432.9-196-649.1-294.6c-25.3-11.5-48.3-29.9-79.2-27.1c36.4,28,73.8,53.8,114,73.7c191.8,94.7,382.8,191.1,576.9,280.7 c444.5,205.1,904.7,368.8,1376.8,496c340.8,91.8,675.5,198.5,1001.5,333.7c293.4,121.7,587.1,242.8,882.7,359.1 c426.6,167.8,859.7,316.4,1309.3,411.6c0,30.3,0,60.6,0,90.9c-21.4-2.6-43.1-4.1-64.3-7.9c-170.9-31.4-334.5-88.1-494.9-152.1 c-397.3-158.7-792.2-323.1-1188.6-484c-332.4-134.9-663.1-275.3-1008.3-374.6c-315.5-90.7-634-171.4-951.7-254.2 c-84.6-22.1-171.4-35.9-257.1-53.5c-1.7,5.1-3.4,10.2-5,15.3c28.5,13.6,56.3,28.8,85.6,40.5c378.8,150.6,738.1,339.7,1083.7,554.7 c279.1,173.6,554.2,353.4,832.1,528.9c457.6,289,939.9,524.5,1467.1,657.3c165.1,41.6,334.1,67.9,501.4,101.2 C9895.6,8441.7,9895.6,8467.6,9895.6,8493.6z M9827.2,7784.1c0.1,1.2,0.2,2.5,0.2,3.7c8.4,0,16.8,0,25.2,0c0-0.7,0-1.5,0.1-2.2 C9844.2,7785.1,9835.7,7784.6,9827.2,7784.1z" style="fill: inherit;"/><path d="M9787.6,7338.8c0,0,790.3,55,961.1,162.6c-56.1-10.9-860.6-99.5-860.6-99.5L9787.6,7338.8z" style="fill: inherit;"/><path d="M9872.8,7748.5c0,0,720.3,170.4,748.4,159.9c-53.8,0.5-759.1-67.8-759.1-67.8l-101.8-54.7v-23.7L9872.8,7748.5z" style="fill: inherit;"/><path d="M9852.1,8407.2c0,0,1071.2,160.9,1114.9,153.1c-176.2,10.9-1084.8-58.7-1121.2-72.8 C9809.4,8473.4,9852.1,8407.2,9852.1,8407.2z" style="fill: inherit;"/></g></svg>